<svg width="481" height="481" viewBox="0 0 481 481" fill="none" xmlns="http://www.w3.org/2000/svg">
<rect x="480.996" y="480.995" width="480" height="480" transform="rotate(-180 480.996 480.995)" fill="#2BEDE1"/>
<path d="M245.867 255.664C307.456 255.664 357.52 313.077 357.742 384.142H357.676H357.6H357.522H357.444H357.364H357.283H357.202H357.12H357.036H356.952H356.866H356.78H356.692H356.604H356.514H356.424H356.332H356.24H356.146H356.052H355.956H355.86H355.762H355.663H355.563H355.462H355.36H355.257H355.153H355.048H354.942H354.835H354.726H354.617H354.506H354.394H354.281H354.167H354.052H353.936H353.819H353.7H353.581H353.46H353.338H353.215H353.091H352.965H352.839H352.711H352.582H352.452H352.321H352.188H352.054H351.92H351.784H351.646H351.508H351.368H351.227H351.085H350.942H350.797H350.651H350.504H350.356H350.206H350.055H349.903H349.75H349.595H349.439H349.282H349.123H348.964H348.803H348.64H348.477H348.312H348.145H347.978H347.809H347.638H347.467H347.294H347.12H346.944H346.767H346.589H346.409H346.228H346.045H345.862H345.676H345.49H345.302H345.113H344.922H344.73H344.536H344.341H344.145H343.947H343.748H343.547H343.345H343.142H342.937H342.731H342.523H342.313H342.103H341.891H341.677H341.462H341.245H341.027H340.807H340.586H340.364H340.14H339.914H339.687H339.458H339.228H338.997H338.763H338.529H338.293H338.055H337.815H337.575H337.332H337.088H336.843H336.595H336.347H336.096H335.845H335.591H335.336H335.079H334.821H334.561H334.3H334.037H333.772H333.506H333.238H332.968H332.697H332.424H332.15H331.874H331.596H331.316H331.035H330.753H330.468H330.182H329.894H329.605H329.313H329.02H328.726H328.43H328.132H327.832H327.53H327.227H326.922H326.616H326.307H325.997H325.685H325.372H325.056H324.739H324.42H324.1H323.777H323.453H323.127H322.799H322.469H322.138H321.805H321.47H321.133H320.794H320.454H320.112H319.768H319.422H319.074H318.724H318.373H318.02H317.664H317.307H316.949H316.588H316.225H315.861H315.495H315.128H314.76H314.391H314.02H313.648H313.274H312.9H312.524H312.147H311.768H311.388H311.007H310.625H310.242H309.857H309.471H309.084H308.696H308.307H307.916H307.524H307.132H306.738H306.342H305.946H305.549H305.15H304.75H304.35H303.948H303.545H303.141H302.736H302.33H301.922H301.514H301.105H300.695H300.283H299.871H299.458H299.043H298.628H298.212H297.794H297.376H296.957H296.537H296.116H295.694H295.271H294.847H294.422H293.996H293.57H293.142H292.714H292.285H291.855H291.424H290.992H290.559H290.126H289.692H289.257H288.821H288.384H287.947H287.508H287.069H286.63H286.189H285.748H285.306H284.863H284.42H283.975H283.531H283.085H282.639H282.192H281.744H281.296H280.847H280.397H279.947H279.496H279.044H278.592H278.14H277.686H277.232H276.778H276.322H275.867H275.41H274.954H274.496H274.038H273.58H273.121H272.661H272.201H271.741H271.28H270.818H270.357H269.894H269.431H268.968H268.504H268.04H267.575H267.11H266.645H266.179H265.713H265.246H264.779H264.312H263.844H263.376H262.907H262.438H261.969H261.5H261.03H260.56H260.089H259.619H259.148H258.677H258.205H257.733H257.261H256.789H256.316H255.844H255.371H254.898H254.424H253.951H253.477H253.003H252.529H252.055H251.58H251.106H250.631H250.156H249.681H249.206H248.731H248.256H247.78H247.305H246.829H246.354H245.878H245.402H244.927H244.451H243.975H243.499H243.023H242.547H242.072H241.596H241.12H240.644H240.168H239.693H239.217H238.742H238.266H237.791H237.315H236.84H236.365H235.89H235.415H234.94H234.465H233.991H233.516H233.042H232.568H232.094H231.62H231.147H230.674H230.201H229.728H229.255H228.783H228.31H227.838H227.367H226.895H226.424H225.953H225.482H225.012H224.542H224.072H223.603H223.134H222.665H222.197H221.729H221.261H220.794H220.327H219.86H219.394H218.928H218.463H217.998H217.533H217.069H216.605H216.142H215.679H215.217H214.755H214.294H213.833H213.373H212.913H212.453H211.995H211.536H211.078H210.621H210.164H209.708H209.253H208.798H208.343H207.889H207.436H206.983H206.531H206.08H205.629H205.179H204.73H204.281H203.833H203.385H202.938H202.492H202.047H201.602H201.158H200.715H200.272H199.83H199.389H198.949H198.509H198.07H197.632H197.195H196.758H196.323H195.888H195.454H195.021H194.588H194.157H193.726H193.296H192.867H192.439H192.012H191.585H191.16H190.735H190.311H189.889H189.467H189.046H188.626H188.207H187.789H187.372H186.956H186.541H186.127H185.713H185.301H184.89H184.48H184.071H183.663H183.256H182.85H182.445H182.041H181.639H181.237H180.837H180.437H180.039H179.642H179.246H178.851H178.457H178.064H177.673H177.283H176.893H176.505H176.119H175.733H175.349H174.966H174.584H174.203H173.824H173.445H173.068H172.693H172.318H171.945H171.573H171.203H170.834H170.466H170.099H169.734H169.37H169.007H168.646H168.286H167.928H167.57H167.215H166.86H166.507H166.156H165.805H165.457H165.109H164.764H164.419H164.076H163.735H163.395H163.056H162.719H162.383H162.049H161.717H161.386H161.056H160.728H160.402H160.077H159.754H159.432H159.112H158.793H158.476H158.161H157.847H157.535H157.224H156.915H156.608H156.303H155.999H155.696H155.396H155.097H154.799H154.504H154.21H153.918H153.627H153.339H153.052H152.766H152.483H152.201H151.921H151.643H151.367H151.092H150.819H150.548H150.279H150.012H149.746H149.483H149.221H148.961H148.703H148.446H148.192H147.94H147.689H147.44H147.194H146.949H146.706H146.465H146.226H145.989H145.754H145.521H145.289H145.06H144.833H144.608H144.385H144.163H143.944H143.727H143.512H143.299H143.088H142.879H142.672H142.468H142.265H142.064H141.866H141.67H141.475H141.283H141.093H140.905H140.72H140.536H140.355H140.176H139.999H139.824H139.651H139.481H139.313H139.147H138.983H138.822H138.663H138.506H138.351H138.199H138.048H137.901H137.755H137.612H137.471H137.332H137.196H137.062H136.93H136.801H136.674H136.55H136.428H136.308H136.191H136.076H135.963H135.853H135.745H135.64H135.537H135.437H135.339H135.243H135.15H135.06H134.972H134.886H134.803H134.723H134.645H134.569H134.496H134.426H134.358H134.293H134.23H134.17H134.113H134.058H134.005H133.992C134.214 313.077 184.278 255.664 245.867 255.664Z" fill="#51DA7F" stroke="black" stroke-width="0.95"/>
<circle cx="244.823" cy="174.943" r="79.7706" fill="#2BEDE1" stroke="black" stroke-width="0.95"/>
<path d="M242.687 167.561C242.653 167.582 242.617 167.604 242.58 167.628C242.093 167.933 241.375 168.382 240.452 168.953C238.607 170.095 235.945 171.726 232.679 173.684C226.145 177.601 217.194 182.822 207.524 188.042C197.852 193.264 187.468 198.481 178.065 202.391C168.642 206.309 160.274 208.885 154.607 208.885C131.784 208.885 113.282 190.384 113.282 167.561C113.282 144.737 131.784 126.236 154.607 126.236C160.274 126.236 168.642 128.812 178.065 132.731C187.468 136.641 197.852 141.857 207.524 147.079C217.194 152.299 226.145 157.52 232.679 161.437C235.945 163.395 238.607 165.026 240.452 166.168C241.375 166.739 242.093 167.188 242.58 167.494C242.617 167.517 242.653 167.539 242.687 167.561Z" fill="#F8CEEE" stroke="black" stroke-width="0.95"/>
<path d="M323.795 168.056C323.761 168.078 323.725 168.1 323.688 168.123C323.201 168.429 322.483 168.877 321.56 169.448C319.715 170.59 317.053 172.222 313.787 174.18C307.253 178.096 298.302 183.318 288.632 188.538C278.96 193.759 268.576 198.976 259.173 202.886C249.75 206.805 241.382 209.381 235.715 209.381C212.892 209.381 194.39 190.879 194.39 168.056C194.39 145.233 212.892 126.731 235.715 126.731C241.382 126.731 249.75 129.307 259.173 133.226C268.576 137.136 278.96 142.353 288.632 147.574C298.302 152.795 307.253 158.016 313.787 161.932C317.053 163.89 319.715 165.522 321.56 166.664C322.483 167.235 323.201 167.683 323.688 167.989C323.725 168.012 323.761 168.035 323.795 168.056Z" fill="white" stroke="black" stroke-width="0.95"/>
<ellipse cx="227.832" cy="168.056" rx="26.4327" ry="26.7805" transform="rotate(-90 227.832 168.056)" fill="black"/>
<path d="M223.646 148.57C231.285 148.57 237.466 154.68 237.466 162.204C237.466 169.729 231.285 175.839 223.646 175.839C216.007 175.839 209.826 169.729 209.826 162.204C209.826 154.68 216.007 148.57 223.646 148.57Z" fill="#EDB72B" stroke="black" stroke-width="0.95"/>
<ellipse cx="147.723" cy="168.056" rx="26.4327" ry="26.7805" transform="rotate(-90 147.723 168.056)" fill="black"/>
<path d="M143.538 148.57C151.176 148.57 157.358 154.68 157.358 162.204C157.358 169.729 151.176 175.839 143.538 175.839C135.899 175.839 129.718 169.729 129.718 162.204C129.718 154.68 135.899 148.57 143.538 148.57Z" fill="white" stroke="black" stroke-width="0.95"/>
<path d="M245.867 255.664C307.456 255.664 357.52 313.077 357.742 384.142H357.676H357.6H357.522H357.444H357.364H357.283H357.202H357.12H357.036H356.952H356.866H356.78H356.692H356.604H356.514H356.424H356.332H356.24H356.146H356.052H355.956H355.86H355.762H355.663H355.563H355.462H355.36H355.257H355.153H355.048H354.942H354.835H354.726H354.617H354.506H354.394H354.281H354.167H354.052H353.936H353.819H353.7H353.581H353.46H353.338H353.215H353.091H352.965H352.839H352.711H352.582H352.452H352.321H352.188H352.054H351.92H351.784H351.646H351.508H351.368H351.227H351.085H350.942H350.797H350.651H350.504H350.356H350.206H350.055H349.903H349.75H349.595H349.439H349.282H349.123H348.964H348.803H348.64H348.477H348.312H348.145H347.978H347.809H347.638H347.467H347.294H347.12H346.944H346.767H346.589H346.409H346.228H346.045H345.862H345.676H345.49H345.302H345.113H344.922H344.73H344.536H344.341H344.145H343.947H343.748H343.547H343.345H343.142H342.937H342.731H342.523H342.313H342.103H341.891H341.677H341.462H341.245H341.027H340.807H340.586H340.364H340.14H339.914H339.687H339.458H339.228H338.997H338.763H338.529H338.293H338.055H337.815H337.575H337.332H337.088H336.843H336.595H336.347H336.096H335.845H335.591H335.336H335.079H334.821H334.561H334.3H334.037H333.772H333.506H333.238H332.968H332.697H332.424H332.15H331.874H331.596H331.316H331.035H330.753H330.468H330.182H329.894H329.605H329.313H329.02H328.726H328.43H328.132H327.832H327.53H327.227H326.922H326.616H326.307H325.997H325.685H325.372H325.056H324.739H324.42H324.1H323.777H323.453H323.127H322.799H322.469H322.138H321.805H321.47H321.133H320.794H320.454H320.112H319.768H319.422H319.074H318.724H318.373H318.02H317.664H317.307H316.949H316.588H316.225H315.861H315.495H315.128H314.76H314.391H314.02H313.648H313.274H312.9H312.524H312.147H311.768H311.388H311.007H310.625H310.242H309.857H309.471H309.084H308.696H308.307H307.916H307.524H307.132H306.738H306.342H305.946H305.549H305.15H304.75H304.35H303.948H303.545H303.141H302.736H302.33H301.922H301.514H301.105H300.695H300.283H299.871H299.458H299.043H298.628H298.212H297.794H297.376H296.957H296.537H296.116H295.694H295.271H294.847H294.422H293.996H293.57H293.142H292.714H292.285H291.855H291.424H290.992H290.559H290.126H289.692H289.257H288.821H288.384H287.947H287.508H287.069H286.63H286.189H285.748H285.306H284.863H284.42H283.975H283.531H283.085H282.639H282.192H281.744H281.296H280.847H280.397H279.947H279.496H279.044H278.592H278.14H277.686H277.232H276.778H276.322H275.867H275.41H274.954H274.496H274.038H273.58H273.121H272.661H272.201H271.741H271.28H270.818H270.357H269.894H269.431H268.968H268.504H268.04H267.575H267.11H266.645H266.179H265.713H265.246H264.779H264.312H263.844H263.376H262.907H262.438H261.969H261.5H261.03H260.56H260.089H259.619H259.148H258.677H258.205H257.733H257.261H256.789H256.316H255.844H255.371H254.898H254.424H253.951H253.477H253.003H252.529H252.055H251.58H251.106H250.631H250.156H249.681H249.206H248.731H248.256H247.78H247.305H246.829H246.354H245.878H245.402H244.927H244.451H243.975H243.499H243.023H242.547H242.072H241.596H241.12H240.644H240.168H239.693H239.217H238.742H238.266H237.791H237.315H236.84H236.365H235.89H235.415H234.94H234.465H233.991H233.516H233.042H232.568H232.094H231.62H231.147H230.674H230.201H229.728H229.255H228.783H228.31H227.838H227.367H226.895H226.424H225.953H225.482H225.012H224.542H224.072H223.603H223.134H222.665H222.197H221.729H221.261H220.794H220.327H219.86H219.394H218.928H218.463H217.998H217.533H217.069H216.605H216.142H215.679H215.217H214.755H214.294H213.833H213.373H212.913H212.453H211.995H211.536H211.078H210.621H210.164H209.708H209.253H208.798H208.343H207.889H207.436H206.983H206.531H206.08H205.629H205.179H204.73H204.281H203.833H203.385H202.938H202.492H202.047H201.602H201.158H200.715H200.272H199.83H199.389H198.949H198.509H198.07H197.632H197.195H196.758H196.323H195.888H195.454H195.021H194.588H194.157H193.726H193.296H192.867H192.439H192.012H191.585H191.16H190.735H190.311H189.889H189.467H189.046H188.626H188.207H187.789H187.372H186.956H186.541H186.127H185.713H185.301H184.89H184.48H184.071H183.663H183.256H182.85H182.445H182.041H181.639H181.237H180.837H180.437H180.039H179.642H179.246H178.851H178.457H178.064H177.673H177.283H176.893H176.505H176.119H175.733H175.349H174.966H174.584H174.203H173.824H173.445H173.068H172.693H172.318H171.945H171.573H171.203H170.834H170.466H170.099H169.734H169.37H169.007H168.646H168.286H167.928H167.57H167.215H166.86H166.507H166.156H165.805H165.457H165.109H164.764H164.419H164.076H163.735H163.395H163.056H162.719H162.383H162.049H161.717H161.386H161.056H160.728H160.402H160.077H159.754H159.432H159.112H158.793H158.476H158.161H157.847H157.535H157.224H156.915H156.608H156.303H155.999H155.696H155.396H155.097H154.799H154.504H154.21H153.918H153.627H153.339H153.052H152.766H152.483H152.201H151.921H151.643H151.367H151.092H150.819H150.548H150.279H150.012H149.746H149.483H149.221H148.961H148.703H148.446H148.192H147.94H147.689H147.44H147.194H146.949H146.706H146.465H146.226H145.989H145.754H145.521H145.289H145.06H144.833H144.608H144.385H144.163H143.944H143.727H143.512H143.299H143.088H142.879H142.672H142.468H142.265H142.064H141.866H141.67H141.475H141.283H141.093H140.905H140.72H140.536H140.355H140.176H139.999H139.824H139.651H139.481H139.313H139.147H138.983H138.822H138.663H138.506H138.351H138.199H138.048H137.901H137.755H137.612H137.471H137.332H137.196H137.062H136.93H136.801H136.674H136.55H136.428H136.308H136.191H136.076H135.963H135.853H135.745H135.64H135.537H135.437H135.339H135.243H135.15H135.06H134.972H134.886H134.803H134.723H134.645H134.569H134.496H134.426H134.358H134.293H134.23H134.17H134.113H134.058H134.005H133.992C134.214 313.077 184.278 255.664 245.867 255.664Z" fill="#51DA7F" stroke="black" stroke-width="0.95"/>
<circle cx="244.823" cy="174.943" r="79.7706" fill="#2BEDE1" stroke="black" stroke-width="0.95"/>
<path d="M242.687 167.561C242.653 167.582 242.617 167.604 242.58 167.628C242.093 167.933 241.375 168.382 240.452 168.953C238.607 170.095 235.945 171.726 232.679 173.684C226.145 177.601 217.194 182.822 207.524 188.042C197.852 193.264 187.468 198.481 178.065 202.391C168.642 206.309 160.274 208.885 154.607 208.885C131.784 208.885 113.282 190.384 113.282 167.561C113.282 144.737 131.784 126.236 154.607 126.236C160.274 126.236 168.642 128.812 178.065 132.731C187.468 136.641 197.852 141.857 207.524 147.079C217.194 152.299 226.145 157.52 232.679 161.437C235.945 163.395 238.607 165.026 240.452 166.168C241.375 166.739 242.093 167.188 242.58 167.494C242.617 167.517 242.653 167.539 242.687 167.561Z" fill="#F8CEEE" stroke="black" stroke-width="0.95"/>
<path d="M323.795 168.056C323.761 168.078 323.725 168.1 323.688 168.123C323.201 168.429 322.483 168.877 321.56 169.448C319.715 170.59 317.053 172.222 313.787 174.18C307.253 178.096 298.302 183.318 288.632 188.538C278.96 193.759 268.576 198.976 259.173 202.886C249.75 206.805 241.382 209.381 235.715 209.381C212.892 209.381 194.39 190.879 194.39 168.056C194.39 145.233 212.892 126.731 235.715 126.731C241.382 126.731 249.75 129.307 259.173 133.226C268.576 137.136 278.96 142.353 288.632 147.574C298.302 152.795 307.253 158.016 313.787 161.932C317.053 163.89 319.715 165.522 321.56 166.664C322.483 167.235 323.201 167.683 323.688 167.989C323.725 168.012 323.761 168.035 323.795 168.056Z" fill="white" stroke="black" stroke-width="0.95"/>
<ellipse cx="227.832" cy="168.056" rx="26.4327" ry="26.7805" transform="rotate(-90 227.832 168.056)" fill="black"/>
<ellipse cx="147.723" cy="168.056" rx="26.4327" ry="26.7805" transform="rotate(-90 147.723 168.056)" fill="black"/>
<path d="M140.335 150.092C146.796 150.092 152.023 155.26 152.023 161.622C152.023 167.984 146.796 173.151 140.335 173.151C133.874 173.151 128.648 167.984 128.648 161.622C128.648 155.26 133.874 150.092 140.335 150.092Z" fill="white" stroke="black" stroke-width="0.95"/>
<path d="M221.514 150.092C227.974 150.092 233.201 155.26 233.201 161.622C233.201 167.984 227.974 173.151 221.514 173.151C215.053 173.151 209.826 167.984 209.826 161.622C209.826 155.26 215.053 150.092 221.514 150.092Z" fill="#EDB72B" stroke="black" stroke-width="0.95"/>
</svg>
